<svg width="525" height="90" viewBox="0 0 525 90" fill="none" xmlns="http://www.w3.org/2000/svg">
<path d="M68.53 53.584C68.53 48.832 66.442 46.168 65.146 44.872C63.202 42.784 60.466 41.272 54.634 39.904C45.562 37.816 36.562 36.592 34.042 34.576C33.034 33.784 32.89 32.848 32.89 32.272C32.89 31.768 33.034 30.616 34.042 29.824C36.202 28.024 40.594 28.096 40.882 28.096C45.49 28.096 48.082 29.248 49.234 31.192C49.522 31.696 49.666 32.272 49.882 32.848L67.666 31.84C67.306 29.608 66.586 25.144 61.762 21.616C60.25 20.464 58.594 19.6 56.794 19.024C52.546 17.584 45.418 17.008 40.954 17.008C27.922 17.008 20.866 20.536 17.554 25.864C16.114 28.096 15.322 30.616 15.322 33.352C15.322 34.648 15.466 37.528 17.338 40.408C19.93 44.368 23.89 45.88 28.21 47.104C32.17 48.184 36.202 48.832 40.162 49.624C43.69 50.272 46.714 50.848 47.938 51.352C50.314 52.36 50.818 53.872 50.818 55.024C50.818 56.824 49.45 58.264 47.938 59.056C46.21 59.92 43.906 60.136 42.034 60.136C37.282 60.136 34.762 59.2 33.034 57.904C31.234 56.608 30.874 55.24 30.73 54.376L12.802 54.808C13.09 56.68 13.45 60.64 16.906 64.456C20.65 68.704 27.418 71.512 39.37 71.512C53.266 71.512 60.898 68.56 65.146 63.232C67.306 60.568 68.53 57.04 68.53 53.584ZM93.1197 70V19.168H74.9037V70H93.1197ZM153.96 53.584C153.96 48.832 151.872 46.168 150.576 44.872C148.632 42.784 145.896 41.272 140.064 39.904C130.992 37.816 121.992 36.592 119.472 34.576C118.464 33.784 118.32 32.848 118.32 32.272C118.32 31.768 118.464 30.616 119.472 29.824C121.632 28.024 126.024 28.096 126.312 28.096C130.92 28.096 133.512 29.248 134.664 31.192C134.952 31.696 135.096 32.272 135.312 32.848L153.096 31.84C152.736 29.608 152.016 25.144 147.192 21.616C145.68 20.464 144.024 19.6 142.224 19.024C137.976 17.584 130.848 17.008 126.384 17.008C113.352 17.008 106.296 20.536 102.984 25.864C101.544 28.096 100.752 30.616 100.752 33.352C100.752 34.648 100.896 37.528 102.768 40.408C105.36 44.368 109.32 45.88 113.64 47.104C117.6 48.184 121.632 48.832 125.592 49.624C129.12 50.272 132.144 50.848 133.368 51.352C135.744 52.36 136.248 53.872 136.248 55.024C136.248 56.824 134.88 58.264 133.368 59.056C131.64 59.92 129.336 60.136 127.464 60.136C122.712 60.136 120.192 59.2 118.464 57.904C116.664 56.608 116.304 55.24 116.16 54.376L98.2317 54.808C98.5197 56.68 98.8797 60.64 102.336 64.456C106.08 68.704 112.848 71.512 124.8 71.512C138.696 71.512 146.328 68.56 150.576 63.232C152.736 60.568 153.96 57.04 153.96 53.584ZM178.549 70V19.168H160.333V70H178.549ZM245.221 19.168H226.141L213.541 49.84L201.157 19.168H182.077L205.117 70H222.037L245.221 19.168ZM267.003 70V19.168H248.787V70H267.003ZM327.843 53.584C327.843 48.832 325.755 46.168 324.459 44.872C322.515 42.784 319.779 41.272 313.947 39.904C304.875 37.816 295.875 36.592 293.355 34.576C292.347 33.784 292.203 32.848 292.203 32.272C292.203 31.768 292.347 30.616 293.355 29.824C295.515 28.024 299.907 28.096 300.195 28.096C304.803 28.096 307.395 29.248 308.547 31.192C308.835 31.696 308.979 32.272 309.195 32.848L326.979 31.84C326.619 29.608 325.899 25.144 321.075 21.616C319.563 20.464 317.907 19.6 316.107 19.024C311.859 17.584 304.731 17.008 300.267 17.008C287.235 17.008 280.179 20.536 276.867 25.864C275.427 28.096 274.635 30.616 274.635 33.352C274.635 34.648 274.779 37.528 276.651 40.408C279.243 44.368 283.203 45.88 287.523 47.104C291.483 48.184 295.515 48.832 299.475 49.624C303.003 50.272 306.027 50.848 307.251 51.352C309.627 52.36 310.131 53.872 310.131 55.024C310.131 56.824 308.763 58.264 307.251 59.056C305.523 59.92 303.219 60.136 301.347 60.136C296.595 60.136 294.075 59.2 292.347 57.904C290.547 56.608 290.187 55.24 290.043 54.376L272.115 54.808C272.403 56.68 272.763 60.64 276.219 64.456C279.963 68.704 286.731 71.512 298.683 71.512C312.579 71.512 320.211 68.56 324.459 63.232C326.619 60.568 327.843 57.04 327.843 53.584ZM394.408 45.808V19.168H376.264V47.752C376.264 50.2 376.192 52.504 375.112 54.808C374.896 55.312 374.248 56.68 372.952 57.832C369.928 60.424 365.392 60.496 364.384 60.496C363.16 60.496 358.768 60.496 355.6 57.616C352.648 54.952 352.36 51.712 352.36 48.04V19.168H334.216V51.784C334.216 53.44 334.072 58.336 336.88 62.584C341.632 69.784 352.072 71.008 353.8 71.224C358.264 71.8 363.16 71.8 364.384 71.8C377.272 71.8 384.616 69.28 389.008 65.176C394.624 59.92 394.408 52.72 394.408 45.808ZM463.457 70L441.425 19.168H420.689L398.729 70H418.745L421.481 61.72H440.921L443.657 70H463.457ZM437.105 50.488H425.297L431.129 33.28L437.105 50.488ZM511.948 70V57.616H485.956V19.168H467.668V70H511.948Z" fill="black"/>
</svg>
